<?xml version="1.0" encoding="UTF-8" standalone="no"?>
<!-- Created with Inkscape (http://www.inkscape.org/) -->

<svg
   width="32"
   height="32"
   viewBox="0 0 32 32"
   version="1.1"
   id="svg1"
   inkscape:export-filename="logo_normal.png"
   inkscape:export-xdpi="96"
   inkscape:export-ydpi="96"
   xmlns:inkscape="http://www.inkscape.org/namespaces/inkscape"
   xmlns:sodipodi="http://sodipodi.sourceforge.net/DTD/sodipodi-0.dtd"
   xmlns:xlink="http://www.w3.org/1999/xlink"
   xmlns="http://www.w3.org/2000/svg"
   xmlns:svg="http://www.w3.org/2000/svg">
  <sodipodi:namedview
     id="namedview1"
     pagecolor="#ffffff"
     bordercolor="#111111"
     borderopacity="1"
     inkscape:showpageshadow="0"
     inkscape:pageopacity="0"
     inkscape:pagecheckerboard="1"
     inkscape:deskcolor="#d1d1d1"
     inkscape:document-units="px">
    <inkscape:page
       x="0"
       y="0"
       width="32"
       height="32"
       id="page2"
       margin="0"
       bleed="0" />
  </sodipodi:namedview>
  <defs
     id="defs1">
    <linearGradient
       id="linearGradient185"
       inkscape:collect="always">
      <stop
         style="stop-color:#04aa6d;stop-opacity:1;"
         offset="0.5020408"
         id="stop185" />
      <stop
         style="stop-color:#04aa6d;stop-opacity:0;"
         offset="1"
         id="stop186" />
    </linearGradient>
    <linearGradient
       id="swatch178"
       inkscape:swatch="solid">
      <stop
         style="stop-color:#04aa6d;stop-opacity:1;"
         offset="0"
         id="stop178" />
    </linearGradient>
    <linearGradient
       id="swatch6"
       inkscape:swatch="solid">
      <stop
         style="stop-color:#000000;stop-opacity:1;"
         offset="0"
         id="stop6" />
    </linearGradient>
    <linearGradient
       inkscape:collect="always"
       xlink:href="#linearGradient185"
       id="linearGradient186"
       x1="0.81194764"
       y1="17.181"
       x2="29.569366"
       y2="17.181"
       gradientUnits="userSpaceOnUse" />
  </defs>
  <g
     inkscape:label="Layer 1"
     inkscape:groupmode="layer"
     id="layer1">
    <path
       d="m 17.321731,33.192884 q -7.4299737,0 -11.6921294,-4.089366 -4.2621557,-4.146962 -4.2621557,-11.807323 0,-5.06851 1.8430944,-8.639505 1.8430943,-3.6285921 5.1261062,-5.5292831 3.2830115,-1.9582878 7.6603605,-1.9582878 6.047654,0 9.503456,3.9165755 3.513398,3.9165756 3.513398,10.7129864 v 2.361464 H 6.6087455 q 0.1151934,4.031769 1.4975142,6.393234 1.4399174,2.361464 3.8589783,3.398205 2.476659,0.979144 5.702074,0.979144 2.534254,0 5.010912,-0.69116 2.476658,-0.691161 4.953317,-1.843095 v 4.607736 q -2.649449,1.151934 -5.298897,1.670304 -2.649448,0.518371 -5.010913,0.518371 z m 6.508427,-19.179701 q -0.17279,-4.031769 -2.188674,-6.3356369 -1.958288,-2.303868 -5.644477,-2.303868 -3.858978,0 -6.2780398,2.3614647 -2.3614646,2.3038682 -2.9950283,6.2780402 z"
       id="text1"
       style="font-size:57.5967px;font-family:Monospace;-inkscape-font-specification:'Monospace, Normal';fill:url(#linearGradient186);fill-opacity:1;fill-rule:evenodd;stroke:#000000;stroke-width:1.111;stroke-linejoin:round;stroke-opacity:1"
       transform="scale(1.0630808,0.94066227)"
       aria-label="e" />
  </g>
</svg>
