<?xml version="1.0" encoding="UTF-8" standalone="no"?>
<!-- Created with Inkscape (http://www.inkscape.org/) -->

<svg
   width="16"
   height="16"
   viewBox="0 0 4.2333333 4.2333333"
   version="1.1"
   id="svg1"
   sodipodi:docname="drawing-1.svg"
   inkscape:version="1.3.2 (091e20ef0f, 2023-11-25, custom)"
   inkscape:export-filename="drawing.svg"
   inkscape:export-xdpi="115.14667"
   inkscape:export-ydpi="115.14667"
   xmlns:inkscape="http://www.inkscape.org/namespaces/inkscape"
   xmlns:sodipodi="http://sodipodi.sourceforge.net/DTD/sodipodi-0.dtd"
   xmlns="http://www.w3.org/2000/svg"
   xmlns:svg="http://www.w3.org/2000/svg">
  <sodipodi:namedview
     id="namedview1"
     pagecolor="#ffffff"
     bordercolor="#000000"
     borderopacity="0.25"
     inkscape:showpageshadow="2"
     inkscape:pageopacity="0.0"
     inkscape:pagecheckerboard="0"
     inkscape:deskcolor="#d1d1d1"
     inkscape:document-units="mm"
     inkscape:zoom="1.0378437"
     inkscape:cx="430.21892"
     inkscape:cy="209.56913"
     inkscape:window-width="2560"
     inkscape:window-height="1371"
     inkscape:window-x="0"
     inkscape:window-y="0"
     inkscape:window-maximized="1"
     inkscape:current-layer="layer1" />
  <defs
     id="defs1" />
  <g
     inkscape:label="Layer 1"
     inkscape:groupmode="layer"
     id="layer1">
    <rect
       style="fill:#ffffff;fill-rule:evenodd;stroke:#000000;stroke-width:4.95501"
       id="rect12"
       width="205.57263"
       height="292.56387"
       x="2.2544518"
       y="2.6004636" />
    <path
       style="fill:#ffffff;fill-rule:evenodd;stroke:#000000;stroke-width:5.00148"
       d="M 2.7596177,79.686157 93.105299,3.9863946"
       id="path13" />
    <path
       style="fill:#ffffff;fill-rule:evenodd;stroke:#000000;stroke-width:5.00148"
       d="M 2.6329057,106.88674 115.66005,3.9863946"
       id="path14" />
    <path
       style="fill:#ffffff;fill-rule:evenodd;stroke:#000000;stroke-width:5.00148"
       d="M 98.300497,294.21157 206.63929,207.47762"
       id="path15" />
    <path
       style="fill:#ffffff;fill-rule:evenodd;stroke:#000000;stroke-width:4.83794"
       d="m 120.07956,294.08895 88.22766,-69.27011"
       id="path16" />
    <path
       style="fill:#ffffff;fill-rule:evenodd;stroke:#000000;stroke-width:5.00148"
       d="M 3.345967,226.906 H 90.973733"
       id="path18" />
    <path
       style="fill:#ffffff;fill-rule:evenodd;stroke:#000000;stroke-width:5.0132"
       d="M 1.7331862,193.51916 H 117.31765"
       id="path19" />
    <path
       style="fill:#ffffff;fill-rule:evenodd;stroke:#000000;stroke-width:5.12926"
       d="M 89.754929,227.51636 115.76183,194.09769"
       id="path20" />
    <path
       style="fill:#ffffff;fill-rule:evenodd;stroke:#000000;stroke-width:5.00148"
       d="M 207.45235,104.97146 H 82.730629"
       id="path21" />
    <path
       style="fill:#ffffff;fill-rule:evenodd;stroke:#000000;stroke-width:5.53501"
       d="M 84.275177,104.29566 104.87382,78.178655"
       id="path22" />
    <path
       style="fill:#ffffff;fill-rule:evenodd;stroke:#000000;stroke-width:5.00148"
       d="M 102.98,78.47972 H 209.60274"
       id="path23" />
    <path
       style="fill:#000000;fill-rule:evenodd;stroke:#000000;stroke-width:4.81912"
       d="m 97.979233,91.725815 7.240737,-9.435185 50.3994,-2.26e-4 50.3994,-2.28e-4 V 91.72559 101.161 H 148.37864 90.738505 Z"
       id="path31" />
    <path
       style="fill:#000000;fill-rule:evenodd;stroke:#000000;stroke-width:4.81912"
       d="M 4.0627586,210.21258 V 197.3296 H 57.94159 c 29.633354,0 53.84523,0.0644 53.80416,0.14292 -0.0411,0.0786 -4.98013,5.87593 -10.97567,12.88296 L 89.869056,223.09554 H 46.965908 4.0627586 Z"
       id="path32" />
    <path
       style="fill:#000000;fill-rule:evenodd;stroke:#000000;stroke-width:12.0221"
       d="m 6.6071458,88.24442 0.1312906,-7.777 40.3561646,-33.135418 40.356168,-33.135417 5.278148,0.250821 5.278125,0.250824 -44.956889,40.072668 C 28.323856,76.810873 7.7293355,95.108588 7.2845516,95.432495 6.5407109,95.974181 6.4863837,95.397715 6.6071458,88.24442 Z"
       id="path33" />
    <path
       style="fill:#000000;fill-rule:evenodd;stroke:#000000;stroke-width:2.32533"
       d="m 92.893108,10.686313 c -0.383017,-2.7402875 -0.67569,-5.0115948 -0.650384,-5.0473482 0.02528,-0.035756 3.917008,-0.048171 8.648276,-0.027593 l 8.60225,0.037412 -7.88692,5.0103282 c -4.337815,2.755677 -7.916157,5.010148 -7.951873,5.009933 -0.03574,-2.16e-4 -0.37835,-2.242446 -0.761349,-4.982732 z"
       id="path36" />
    <path
       style="fill:#000000;fill-rule:evenodd;stroke:#000000;stroke-width:4.87454"
       d="m 105.88423,291.89723 c 0.0888,-0.17894 99.29085,-79.26406 99.79331,-79.5565 0.29253,-0.17022 0.31804,0.24208 0.31804,5.14022 v 5.3253 l -0.95404,0.72794 c -0.52474,0.40037 -20.48714,15.98195 -44.36086,34.62573 l -43.4068,33.89778 h -5.73464 c -3.15405,0 -5.69881,-0.0722 -5.65501,-0.16047 z"
       id="path37" />
  </g>
</svg>
